<svg width="31" height="20" viewBox="0 0 31 20" fill="none" xmlns="http://www.w3.org/2000/svg">
<path d="M1 1H29.9998V18.7741H1V1Z" fill="#1E50A0"/>
<path d="M17.3701 6.54551V8.01608H22.1322L29.9991 3.19416V1H26.419L17.3701 6.54551Z" fill="white"/>
<path d="M29.9991 1H28.209L17.3701 7.64329V8.01608H18.9988L29.9991 1.2741V1Z" fill="#D22F27"/>
<path d="M26.4195 18.7739H29.9991V16.5793L22.1326 11.7578H17.3701V13.2279L26.4195 18.7739Z" fill="white"/>
<path d="M29.999 18.7739V17.6761L20.3426 11.7578H18.1035L29.551 18.7739H29.999Z" fill="#D22F27"/>
<path d="M13.6289 13.2285V11.7579H8.8669L1 16.5799V18.774H4.58007L13.6289 13.2285Z" fill="white"/>
<path d="M1 18.774H2.79004L13.6289 12.1307V11.7579H12.0003L1 18.4999V18.774Z" fill="#D22F27"/>
<path d="M4.57961 1H1V3.19463L8.86643 8.01608H13.6289V6.54598L4.57961 1Z" fill="white"/>
<path d="M1 1V2.09778L10.6569 8.01608H12.8955L1.44809 1H1Z" fill="#D22F27"/>
<path d="M1 7.54865H29.9998V12.226H1V7.54865Z" fill="white"/>
<path d="M13.1613 1H17.8386V18.7741H13.1613V1Z" fill="white"/>
<path d="M1 8.48395H29.9998V11.2904H1V8.48395Z" fill="#D22F27"/>
<path d="M14.0977 1H16.9041V18.7741H14.0977V1Z" fill="#D22F27"/>
<path d="M1 1H29.9998V18.7741H1V1Z" stroke="black" stroke-linecap="round" stroke-linejoin="round"/>
</svg>
