<svg width="15" height="15" viewBox="0 0 15 15" fill="none" xmlns="http://www.w3.org/2000/svg">
<path d="M0.218964 13.8984L0.221558 13.901C0.29033 13.9703 0.372117 14.0253 0.462218 14.0628C0.552319 14.1004 0.648956 14.1198 0.746573 14.1199C0.828712 14.1198 0.910283 14.1063 0.988034 14.0798L5.22124 12.6438L13.3445 4.52052C13.8411 4.02389 14.12 3.35032 14.12 2.64799C14.12 1.94567 13.841 1.27213 13.3443 0.775531C12.8477 0.278936 12.1741 -3.0745e-05 11.4718 2.54147e-09C10.7695 3.07501e-05 10.0959 0.279057 9.59933 0.775695L1.47608 8.89894L0.0401934 13.132C-0.00503714 13.2637 -0.0122568 13.4054 0.0193623 13.5409C0.0509815 13.6765 0.120159 13.8004 0.218964 13.8984ZM10.2739 1.45021C10.592 1.1345 11.0223 0.957718 11.4705 0.958579C11.9187 0.959439 12.3483 1.13787 12.6652 1.4548C12.9822 1.77173 13.1606 2.20133 13.1614 2.64953C13.1623 3.09773 12.9855 3.528 12.6698 3.84613L11.6015 4.91435L9.20563 2.51842L10.2739 1.45021ZM2.30808 9.41599L8.53111 3.19293L10.927 5.58886L4.70398 11.8119L1.07806 13.0419L2.30808 9.41599Z" fill="#433F3F"/>
</svg>
