<svg width="17" height="13" viewBox="0 0 17 13" fill="none" xmlns="http://www.w3.org/2000/svg">
<path d="M7.01871 5.63003C7.07188 5.60682 7.11995 5.57333 7.16013 5.53149C7.20032 5.48965 7.23185 5.44028 7.25289 5.38622C7.27394 5.33216 7.2841 5.27447 7.28278 5.21647C7.28146 5.15847 7.26869 5.1013 7.24521 5.04825L7.14576 4.8225C7.24678 4.79161 7.34935 4.76605 7.45306 4.74592C7.75473 4.6946 8.0413 4.57709 8.29216 4.40183L8.54078 4.62559C8.62739 4.70445 8.74178 4.74568 8.85879 4.7402C8.97579 4.73472 9.08583 4.68299 9.1647 4.59638C9.24356 4.50977 9.28479 4.39538 9.27931 4.27837C9.27383 4.16136 9.22209 4.05132 9.13548 3.97246L8.89382 3.75467C9.10995 3.39413 9.21099 2.97626 9.18347 2.55681L9.47808 2.46954C9.53359 2.45297 9.58529 2.42563 9.63022 2.38908C9.67516 2.35253 9.71246 2.30749 9.73999 2.25653C9.76752 2.20556 9.78475 2.14968 9.79068 2.09206C9.79661 2.03444 9.79114 1.97621 9.77457 1.92071C9.758 1.8652 9.73066 1.81351 9.69411 1.76857C9.65756 1.72363 9.61252 1.68633 9.56155 1.6588C9.51059 1.63127 9.4547 1.61404 9.39708 1.60811C9.33946 1.60218 9.28124 1.60765 9.22573 1.62422L8.9438 1.70776C8.74097 1.32656 8.42498 1.0176 8.03931 0.823412L8.10992 0.553657C8.13936 0.440012 8.12245 0.319326 8.06291 0.218148C8.00337 0.11697 7.90607 0.0435888 7.79243 0.0141472C7.67878 -0.0152945 7.55809 0.00161519 7.45692 0.0611562C7.35574 0.120697 7.28236 0.217992 7.25291 0.331638L7.1828 0.599652C7.04351 0.594732 6.90407 0.603894 6.76661 0.627001C6.48368 0.672499 6.21442 0.752555 5.94342 0.831368L5.85939 0.596172C5.82019 0.485527 5.73864 0.394986 5.63268 0.344467C5.52672 0.293948 5.40504 0.287589 5.29439 0.32679C5.18375 0.36599 5.09321 0.447539 5.04269 0.553496C4.99217 0.659453 4.98581 0.781138 5.02501 0.891784L5.11178 1.13543C4.73131 1.29868 4.36578 1.49475 4.01934 1.72144L3.86221 1.51185C3.79152 1.41821 3.68671 1.35627 3.57059 1.33951C3.45447 1.32274 3.33643 1.35251 3.24214 1.42234C3.19554 1.45688 3.15623 1.50029 3.12647 1.55008C3.09671 1.59987 3.0771 1.65505 3.06876 1.71246C3.06041 1.76986 3.06351 1.82834 3.07786 1.88454C3.09222 1.94074 3.11754 1.99355 3.15239 2.03992L3.31275 2.25398C2.99822 2.52107 2.70748 2.81496 2.44382 3.13237L2.22453 2.97275C2.12968 2.90361 2.01128 2.87489 1.89529 2.89287C1.7793 2.91086 1.67517 2.9741 1.60571 3.06872C1.57139 3.11541 1.54665 3.16843 1.53292 3.22473C1.51918 3.28102 1.51673 3.33948 1.5257 3.39673C1.53466 3.45398 1.55488 3.50888 1.58516 3.55828C1.61545 3.60768 1.65522 3.6506 1.70218 3.68456L1.92295 3.84542C1.70117 4.19212 1.50985 4.55738 1.35112 4.93712L1.09057 4.84786C1.03584 4.82894 0.977933 4.82098 0.920138 4.82444C0.862342 4.8279 0.805794 4.84271 0.753722 4.86803C0.648557 4.91915 0.56801 5.00996 0.529798 5.12047C0.510878 5.1752 0.502921 5.23311 0.506381 5.2909C0.509842 5.3487 0.524652 5.40525 0.549967 5.45732C0.601092 5.56248 0.691899 5.64303 0.802412 5.68124L1.05974 5.76925C0.990371 6.01788 0.915784 6.26252 0.872772 6.52059C0.847935 6.67675 0.841095 6.83525 0.852385 6.99297L0.564481 7.07825C0.508977 7.09479 0.457273 7.12209 0.412322 7.15861C0.367372 7.19513 0.330054 7.24015 0.3025 7.29109C0.274946 7.34203 0.257695 7.3979 0.251733 7.4555C0.245771 7.51311 0.251213 7.57133 0.26775 7.62683C0.284287 7.68234 0.311595 7.73404 0.348113 7.77899C0.384632 7.82394 0.429647 7.86126 0.480588 7.88882C0.531529 7.91637 0.587398 7.93362 0.645005 7.93958C0.702613 7.94554 0.760831 7.9401 0.816335 7.92356L1.09653 7.84077C1.29934 8.22121 1.61555 8.52907 2.00127 8.72164L1.92967 8.99662C1.90244 9.10955 1.92068 9.22866 1.98045 9.32827C2.04023 9.42787 2.13676 9.5 2.24923 9.52909C2.36169 9.55819 2.48108 9.54192 2.58167 9.4838C2.68225 9.42568 2.75596 9.33036 2.78691 9.21839L2.85827 8.94491C2.88313 8.94491 2.90973 8.95137 2.93534 8.95137C3.3392 8.94934 3.73367 8.8294 4.0703 8.60628L4.28387 8.82507C4.3653 8.90934 4.47688 8.95781 4.59405 8.95981C4.71122 8.96182 4.82439 8.91719 4.90866 8.83576C4.99293 8.75433 5.04139 8.64275 5.0434 8.52558C5.0454 8.40841 5.00078 8.29524 4.91935 8.21097L4.69211 7.97801C4.84312 7.74351 4.94526 7.48094 4.99244 7.20604C5.01582 7.07533 5.04796 6.94633 5.08866 6.81993L5.31242 6.92485C5.41822 6.9748 5.53953 6.98067 5.64965 6.94118C5.75979 6.90169 5.84972 6.82007 5.89966 6.71427C5.94961 6.60847 5.95549 6.48716 5.916 6.37703C5.8765 6.2669 5.79488 6.17697 5.68908 6.12702L5.47029 6.02484C5.48695 5.99998 5.50013 5.97312 5.51753 5.94901C5.57872 5.86774 5.64403 5.78965 5.7132 5.71505C5.80331 5.61421 5.90007 5.51952 6.00284 5.43162C6.08173 5.3625 6.16422 5.2976 6.24997 5.2372C6.27782 5.21806 6.30765 5.2019 6.33625 5.18375L6.43371 5.40378C6.46869 5.48214 6.52563 5.54869 6.59763 5.59538C6.66964 5.64206 6.75364 5.66687 6.83946 5.66682C6.9011 5.66693 6.9621 5.65441 7.01871 5.63003ZM3.42985 6.36595C3.2725 6.36595 3.11868 6.31929 2.98785 6.23187C2.85701 6.14445 2.75504 6.02019 2.69482 5.87482C2.63461 5.72944 2.61885 5.56947 2.64955 5.41514C2.68025 5.26081 2.75602 5.11905 2.86728 5.00779C2.97855 4.89652 3.12031 4.82075 3.27464 4.79005C3.42897 4.75935 3.58894 4.77511 3.73431 4.83533C3.87969 4.89554 4.00394 4.99752 4.09136 5.12835C4.17878 5.25918 4.22544 5.413 4.22544 5.57036C4.22544 5.78136 4.14162 5.98372 3.99242 6.13292C3.84322 6.28213 3.64086 6.36595 3.42985 6.36595ZM5.41883 3.97917C5.34015 3.97917 5.26324 3.95584 5.19783 3.91213C5.13241 3.86842 5.08142 3.8063 5.05131 3.73361C5.02121 3.66092 5.01333 3.58094 5.02868 3.50377C5.04403 3.42661 5.08191 3.35573 5.13755 3.30009C5.19318 3.24446 5.26406 3.20658 5.34122 3.19123C5.41839 3.17588 5.49837 3.18376 5.57106 3.21386C5.64375 3.24397 5.70587 3.29496 5.74958 3.36038C5.79329 3.42579 5.81663 3.5027 5.81663 3.58138C5.81663 3.68688 5.77471 3.78806 5.70011 3.86266C5.62551 3.93726 5.52433 3.97917 5.41883 3.97917ZM16.1409 5.10543C16.1136 5.01419 16.0576 4.93419 15.9812 4.87735C15.9047 4.8205 15.812 4.78984 15.7168 4.78993C15.674 4.78984 15.6314 4.79604 15.5905 4.80833L15.3103 4.89112C15.1073 4.51079 14.7912 4.20296 14.4055 4.01025L14.4771 3.73528C14.5038 3.62252 14.4853 3.50379 14.4254 3.40456C14.3656 3.30533 14.2692 3.23352 14.157 3.20453C14.0448 3.17554 13.9258 3.19168 13.8253 3.24949C13.7249 3.3073 13.6512 3.40218 13.6199 3.51375L13.5485 3.78724C13.5237 3.78724 13.4971 3.78077 13.4715 3.78077C13.0676 3.78278 12.6731 3.90281 12.3365 4.12611L12.1229 3.90707C12.0415 3.8228 11.9299 3.77434 11.8127 3.77233C11.6956 3.77033 11.5824 3.81495 11.4981 3.89638C11.4139 3.97782 11.3654 4.08939 11.3634 4.20656C11.3614 4.32373 11.406 4.4369 11.4874 4.52117L11.7147 4.75413C11.5636 4.98867 11.4614 5.25134 11.4144 5.52635C11.3909 5.65698 11.3588 5.78589 11.3181 5.91221L11.0944 5.80729C10.9886 5.75734 10.8673 5.75147 10.7571 5.79096C10.647 5.83045 10.5571 5.91208 10.5071 6.01788C10.4572 6.12367 10.4513 6.24498 10.4908 6.35511C10.5303 6.46524 10.6119 6.55517 10.7177 6.60512L10.9365 6.70731C10.9198 6.73217 10.9067 6.75902 10.8895 6.78313C10.8279 6.86502 10.762 6.94361 10.6921 7.01858C10.6027 7.1189 10.5066 7.21301 10.4045 7.30027C10.325 7.36945 10.242 7.43443 10.1558 7.49494C10.128 7.51408 10.0981 7.53024 10.0696 7.54839L9.9721 7.32836C9.93712 7.25 9.88018 7.18345 9.80817 7.13677C9.73616 7.09008 9.65216 7.06527 9.56635 7.06532C9.50492 7.06547 9.44418 7.07816 9.38783 7.10261C9.33478 7.12585 9.28682 7.15932 9.24672 7.20112C9.20662 7.24291 9.17517 7.29221 9.15415 7.34618C9.13313 7.40016 9.12297 7.45775 9.12425 7.51566C9.12552 7.57356 9.13821 7.63065 9.16159 7.68364L9.26104 7.90939C9.16005 7.9404 9.05747 7.96596 8.95374 7.98597C8.65177 8.03768 8.36502 8.1557 8.11414 8.33155L7.86552 8.10779C7.8228 8.06772 7.77253 8.03653 7.71765 8.01606C7.66276 7.99559 7.60436 7.98623 7.54582 7.98854C7.48729 7.99085 7.4298 8.00478 7.3767 8.02952C7.3236 8.05425 7.27595 8.0893 7.23652 8.13262C7.19709 8.17594 7.16667 8.22667 7.14702 8.28185C7.12738 8.33704 7.11891 8.39558 7.1221 8.45407C7.12529 8.51257 7.14008 8.56984 7.16561 8.62256C7.19115 8.67528 7.22691 8.7224 7.27082 8.76117L7.51248 8.97872C7.29635 9.33925 7.19531 9.75713 7.22283 10.1766L6.92797 10.2638C6.87246 10.2804 6.82077 10.3078 6.77584 10.3444C6.7309 10.3809 6.69361 10.426 6.66609 10.4769C6.63858 10.5279 6.62137 10.5838 6.61545 10.6414C6.60953 10.6991 6.61502 10.7573 6.63161 10.8128C6.64819 10.8683 6.67555 10.92 6.71211 10.9649C6.74868 11.0099 6.79373 11.0472 6.84471 11.0747C6.89569 11.1022 6.95158 11.1194 7.00921 11.1253C7.06683 11.1312 7.12506 11.1257 7.18057 11.1092L7.4625 11.0256C7.66548 11.407 7.98175 11.7161 8.36774 11.9102L8.29713 12.18C8.26769 12.2936 8.2846 12.4143 8.34414 12.5155C8.40368 12.6167 8.50097 12.69 8.61462 12.7195C8.72826 12.7489 8.84895 12.732 8.95013 12.6725C9.05131 12.6129 9.12469 12.5156 9.15413 12.402L9.22424 12.134C9.36354 12.1389 9.50298 12.1297 9.64043 12.1066C9.92312 12.0596 10.1934 11.9806 10.4634 11.9018L10.5474 12.137C10.5866 12.2476 10.6682 12.3382 10.7741 12.3887C10.8801 12.4392 11.0018 12.4455 11.1124 12.4063C11.223 12.3671 11.3136 12.2856 11.3641 12.1796C11.4146 12.0737 11.421 11.952 11.3818 11.8414L11.295 11.598C11.6754 11.4345 12.041 11.2384 12.3875 11.0117L12.5446 11.2213C12.6152 11.315 12.72 11.3769 12.8361 11.3937C12.9522 11.4105 13.0702 11.3807 13.1644 11.3108C13.2113 11.2763 13.2508 11.2329 13.2807 11.183C13.3107 11.1331 13.3304 11.0778 13.3388 11.0202C13.3471 10.9626 13.344 10.904 13.3295 10.8476C13.315 10.7913 13.2895 10.7384 13.2544 10.692L13.094 10.4779C13.4085 10.2107 13.6993 9.9167 13.963 9.59928L14.1823 9.75889C14.2289 9.79513 14.2823 9.82165 14.3393 9.83689C14.3963 9.85214 14.4558 9.85579 14.5143 9.84764C14.5727 9.83949 14.629 9.81971 14.6797 9.78945C14.7303 9.75919 14.7744 9.71907 14.8094 9.67148C14.8443 9.62388 14.8693 9.56977 14.8829 9.51233C14.8966 9.4549 14.8985 9.39532 14.8888 9.33711C14.879 9.2789 14.8576 9.22324 14.8259 9.17342C14.7943 9.12361 14.7529 9.08065 14.7044 9.04709L14.4836 8.88648C14.7053 8.53966 14.8967 8.17432 15.0554 7.79453L15.316 7.88379C15.3707 7.90271 15.4286 7.91066 15.4864 7.9072C15.5442 7.90374 15.6008 7.88893 15.6528 7.86362C15.7049 7.8383 15.7515 7.80298 15.7899 7.75966C15.8283 7.71635 15.8578 7.66589 15.8768 7.61117C15.8957 7.55645 15.9036 7.49854 15.9002 7.44074C15.8967 7.38295 15.8819 7.3264 15.8566 7.27433C15.8313 7.22225 15.7959 7.17568 15.7526 7.13726C15.7093 7.09884 15.6589 7.06932 15.6041 7.0504L15.3471 6.96264C15.4164 6.71402 15.491 6.46937 15.534 6.21155C15.5589 6.05498 15.5658 5.89606 15.5544 5.73793L15.8423 5.65265C15.8979 5.63641 15.9497 5.60936 15.9949 5.57304C16.04 5.53673 16.0775 5.49187 16.1052 5.44103C16.133 5.39019 16.1504 5.33438 16.1565 5.27679C16.1626 5.2192 16.1573 5.16097 16.1409 5.10543ZM10.5902 10.3439C10.4328 10.3439 10.279 10.2972 10.1482 10.2098C10.0173 10.1224 9.91536 9.99815 9.85514 9.85277C9.79492 9.7074 9.77917 9.54743 9.80987 9.3931C9.84057 9.23877 9.91634 9.09701 10.0276 8.98574C10.1389 8.87448 10.2806 8.79871 10.435 8.76801C10.5893 8.73731 10.7493 8.75306 10.8946 8.81328C11.04 8.8735 11.1643 8.97547 11.2517 9.1063C11.3391 9.23714 11.3858 9.39096 11.3858 9.54831C11.3858 9.75932 11.3019 9.96168 11.1527 10.1109C11.0035 10.2601 10.8012 10.3439 10.5902 10.3439Z" fill="black"/>
</svg>
