<svg width="16" height="15" viewBox="0 0 16 15" fill="none" xmlns="http://www.w3.org/2000/svg">
<path d="M1 9.67646C2.39578 5.80846 5.56066 2.73669 9.5108 3.94231C12.2672 4.7836 11.1108 6.35132 12.182 7.38198C12.7863 7.84693 14.427 7.22287 14.8514 7.80335C15.2266 8.31673 14.9555 9.25331 14.8514 9.86812C14.4407 12.2923 11.6617 12.6492 9.30728 12.6492" stroke="black" stroke-opacity="0.9" stroke-linecap="round" stroke-linejoin="round"/>
<path d="M14.9879 8.69234C14.7939 8.32408 14.3511 7.97978 13.8176 7.68921" stroke="black" stroke-opacity="0.9" stroke-linecap="round" stroke-linejoin="round"/>
<path d="M4.24557 7.98021C4.10547 8.74303 1.94569 13.9389 4.18165 14.3816C8.33421 14.9748 7.83582 10.2512 7.83582 7.29919" stroke="black" stroke-opacity="0.9" stroke-linecap="round" stroke-linejoin="round"/>
<path d="M9.9165 7.24341V7.52205" stroke="black" stroke-opacity="0.9" stroke-linecap="round" stroke-linejoin="round"/>
<path d="M6.08037 3.59074C6.08037 3.41592 6.09552 3.23309 6.06599 3.06015C6.02239 2.80476 5.86257 2.55479 5.73095 2.33544C5.61357 2.1398 5.48823 1.91388 5.3384 1.74158C5.13936 1.51268 4.83815 1.47705 4.5533 1.44824C4.31531 1.42418 4.08578 1.39993 3.86598 1.52301C3.59088 1.67707 3.38859 2.02048 3.38859 2.33544C3.38859 2.71352 3.34624 3.12298 3.66467 3.39518C3.90661 3.60201 4.24503 3.70405 4.55042 3.77192C4.83538 3.83524 5.16107 3.81324 5.45344 3.82368C5.53452 3.82658 5.84112 3.78453 5.87331 3.72015" stroke="black" stroke-linecap="round"/>
<path d="M6.32782 3.35035C6.32782 2.95334 6.27302 2.50323 6.42819 2.13021C6.58494 1.75341 6.80807 1.5187 7.11075 1.25806C7.27197 1.11923 7.38967 1.00154 7.60148 1.00154C7.76419 1.00154 7.9273 0.998077 8.08998 1.00154C8.22985 1.00451 8.3591 1.13533 8.47476 1.20229C8.8299 1.4079 8.91753 1.73708 8.91753 2.12575C8.91753 2.46338 8.70218 2.73446 8.44353 2.92988C7.99781 3.26665 7.4655 3.43378 6.93119 3.57117C6.73388 3.62191 6.51971 3.66149 6.32893 3.73178C6.25746 3.75811 6.16431 3.792 6.08691 3.792" stroke="black" stroke-linecap="round"/>
</svg>
