<svg width="11" height="11" viewBox="0 0 11 11" fill="none" xmlns="http://www.w3.org/2000/svg">
<path d="M4.89666 10.1519L4.91372 10.0533L4.89667 10.1519C5.15107 10.1959 5.39302 10.0254 5.43708 9.77098L5.33854 9.75392L5.43708 9.77098C5.48113 9.51652 5.3106 9.27458 5.05619 9.23054C3.35016 8.93511 1.83502 7.50945 1.83502 5.41755C1.83502 4.60747 2.19881 3.94521 2.69284 3.3893C3.05817 2.97822 3.47338 2.64742 3.8413 2.36763V3.468C3.8413 3.71795 4.04393 3.92057 4.29387 3.92057C4.54382 3.92057 4.74645 3.71795 4.74645 3.468V1.35257C4.74645 1.10263 4.54382 0.9 4.29387 0.9H2.17844C1.9285 0.9 1.72587 1.10262 1.72587 1.35257C1.72587 1.60252 1.9285 1.80514 2.17844 1.80514H3.03951C2.70722 2.06706 2.33142 2.38843 1.99393 2.76818C1.40848 3.42696 0.899999 4.30119 0.9 5.41755C0.9 8.02225 2.80208 9.78915 4.89666 10.1519ZM8.26298 9.31658C8.59526 9.05464 8.97108 8.73328 9.30861 8.35351L9.23386 8.28708L9.30861 8.35351C9.89404 7.69472 10.4025 6.8205 10.4025 5.70415C10.4025 3.12742 8.54063 1.37013 6.47296 0.981955C6.2192 0.934315 5.97486 1.10141 5.92722 1.35518L6.0255 1.37363L5.92722 1.35518C5.87958 1.60895 6.04667 1.85329 6.30045 1.90093C7.98454 2.21708 9.46754 3.6343 9.46754 5.70415C9.46754 6.51423 9.10376 7.17648 8.60967 7.73241L8.60967 7.73241C8.24436 8.1435 7.82918 8.47426 7.46125 8.75404V7.65372C7.46125 7.40374 7.25863 7.20112 7.00868 7.20112C6.75873 7.20112 6.55611 7.40374 6.55611 7.65372V9.76915C6.55611 10.0191 6.75873 10.2217 7.00868 10.2217H9.12414C9.37406 10.2217 9.57672 10.0191 9.57672 9.76915C9.57672 9.51915 9.37405 9.31658 9.12414 9.31658H8.26298Z" fill="black" stroke="black" stroke-width="0.2"/>
</svg>
