<svg width="16" height="16" viewBox="0 0 16 16" fill="none" xmlns="http://www.w3.org/2000/svg">
<path d="M14.305 6.19885C14.305 5.51004 14.1693 4.82798 13.9057 4.19161C13.6421 3.55523 13.2557 2.97701 12.7687 2.48995C12.2816 2.00289 11.7034 1.61653 11.067 1.35294C10.4307 1.08934 9.74859 0.953674 9.05979 0.953674H5.24512C4.10694 0.953674 3.01538 1.40581 2.21057 2.21063C1.40575 3.01544 0.953613 4.107 0.953613 5.24518V6.67568C0.953613 7.308 1.2048 7.91442 1.65192 8.36154C2.09904 8.80866 2.70546 9.05985 3.33778 9.05985H3.8623C3.97222 9.59837 4.26483 10.0824 4.69061 10.4299C5.11638 10.7775 5.64916 10.9673 6.19879 10.9672H6.85682L8.76415 14.305L9.58907 13.8282L7.68174 10.5428C7.60501 10.3882 7.48775 10.2573 7.34247 10.1641C7.1972 10.0709 7.02934 10.0188 6.85682 10.0135H6.19879C5.81939 10.0135 5.45554 9.8628 5.18727 9.59453C4.919 9.32626 4.76828 8.96241 4.76828 8.58302C4.76828 8.20362 4.919 7.83977 5.18727 7.5715C5.45554 7.30323 5.81939 7.15251 6.19879 7.15251H6.67562V6.19885H6.19879C5.64916 6.19873 5.11638 6.38852 4.69061 6.73609C4.26483 7.08366 3.97222 7.56766 3.8623 8.10618H3.33778C2.95839 8.10618 2.59454 7.95547 2.32627 7.6872C2.05799 7.41893 1.90728 7.05507 1.90728 6.67568V5.72201H2.86095C3.24034 5.72201 3.60419 5.5713 3.87247 5.30303C4.14074 5.03476 4.29145 4.6709 4.29145 4.29151V3.81468H3.33778V4.29151C3.33778 4.41798 3.28754 4.53926 3.19812 4.62868C3.1087 4.71811 2.98741 4.76834 2.86095 4.76834H1.94543C2.05999 3.97461 2.45651 3.24865 3.06242 2.72329C3.66834 2.19793 4.44316 1.90828 5.24512 1.90734H8.10612V2.86101C8.10612 2.98747 8.05588 3.10876 7.96646 3.19818C7.87704 3.28761 7.75575 3.33784 7.62929 3.33784H6.67562V4.29151H7.62929C8.00868 4.29151 8.37253 4.1408 8.6408 3.87253C8.90908 3.60426 9.05979 3.2404 9.05979 2.86101V1.90734C9.85803 1.90843 10.6402 2.13213 11.3182 2.55331C11.9963 2.97448 12.5435 3.57644 12.8983 4.29151H12.3976C12.0182 4.29151 11.6544 4.44222 11.3861 4.71049C11.1178 4.97877 10.9671 5.34262 10.9671 5.72201V6.19885H11.9208V5.72201C11.9208 5.59555 11.971 5.47426 12.0605 5.38484C12.1499 5.29542 12.2712 5.24518 12.3976 5.24518H13.2416C13.3147 5.5578 13.3515 5.8778 13.3513 6.19885V6.67568C13.3513 7.308 13.1001 7.91442 12.653 8.36154C12.2059 8.80866 11.5994 9.05985 10.9671 9.05985H9.53662V10.0135H10.9671C11.4621 10.0128 11.9507 9.90208 12.3976 9.68927V10.0135C12.3976 10.3929 12.2469 10.7568 11.9786 11.025C11.7104 11.2933 11.3465 11.444 10.9671 11.444H10.4903V12.3977H10.9671C11.5994 12.3977 12.2059 12.1465 12.653 11.6994C13.1001 11.2523 13.3513 10.6458 13.3513 10.0135V9.0074C13.9615 8.38456 14.3038 7.54765 14.305 6.67568V6.19885Z" fill="black"/>
</svg>
