<svg width="27" height="27" viewBox="0 0 27 27" fill="none" xmlns="http://www.w3.org/2000/svg">
<path d="M10.9436 6.53716C10.3437 6.65439 9.68864 7.0436 9.17059 7.95476C8.94189 8.35703 8.43038 8.49772 8.02813 8.269C7.62587 8.04031 7.48518 7.5288 7.71389 7.12655C8.45262 5.82725 9.50328 5.11125 10.6222 4.89257C11.7162 4.67875 12.8038 4.95452 13.6253 5.49843C14.4357 6.03506 15.0911 6.91099 15.112 7.96272C15.1338 9.05887 14.4655 10.0487 13.2366 10.7754C12.4011 11.2694 12.0762 11.6044 11.938 11.827C11.8217 12.0143 11.7936 12.1852 11.7936 12.5677C11.7936 13.0305 11.4185 13.4056 10.9558 13.4056C10.493 13.4056 10.1179 13.0305 10.1179 12.5677C10.1179 12.1124 10.1412 11.5444 10.5143 10.9433C10.8654 10.3775 11.4676 9.87469 12.3837 9.33298C13.2801 8.8029 13.4426 8.29754 13.4366 7.996C13.4298 7.65004 13.1988 7.22577 12.7002 6.89561C12.2125 6.5727 11.5682 6.41507 10.9436 6.53716Z" fill="#CCCCCC"/>
<path d="M11.3747 17.5952C12.0688 17.5952 12.6315 17.0325 12.6315 16.3385C12.6315 15.6444 12.0688 15.0817 11.3747 15.0817C10.6806 15.0817 10.1179 15.6444 10.1179 16.3385C10.1179 17.0325 10.6806 17.5952 11.3747 17.5952Z" fill="#CCCCCC"/>
<path d="M10.9561 0C4.94065 0 0.0641351 4.87651 0.0641351 10.892C0.0641351 12.8207 0.566155 14.6344 1.447 16.2071L0.113585 19.6964C-0.377862 20.9823 0.805142 22.2795 2.13082 21.9082L6.2989 20.7407C7.71184 21.41 9.29136 21.784 10.9561 21.784C16.9715 21.784 21.8481 16.9076 21.8481 10.892C21.8481 4.87651 16.9715 0 10.9561 0ZM1.73983 10.892C1.73983 5.80196 5.86611 1.67569 10.9561 1.67569C16.0462 1.67569 20.1724 5.80196 20.1724 10.892C20.1724 15.9821 16.0462 20.1083 10.9561 20.1083C9.44444 20.1083 8.02005 19.745 6.7632 19.1017L6.47127 18.9522L1.67886 20.2945L3.30279 16.0452L3.08782 15.6937C2.2328 14.2959 1.73983 12.6528 1.73983 10.892Z" fill="#CCCCCC"/>
<path d="M15.9209 26.8112C12.6203 26.8112 9.66272 25.3432 7.66528 23.0245C8.60878 23.2799 9.59632 23.428 10.614 23.4553C12.1144 24.5139 13.9451 25.1355 15.9209 25.1355C17.4325 25.1355 18.8568 24.7723 20.1138 24.129L20.4057 23.9795L25.1982 25.3217L23.5742 21.0723L23.7891 20.7209C24.6442 19.3231 25.1372 17.6801 25.1372 15.9192C25.1372 13.9847 24.5411 12.1894 23.5226 10.7069C23.5079 9.68844 23.3722 8.69931 23.1288 7.75327C25.388 9.749 26.8129 12.6677 26.8129 15.9192C26.8129 17.848 26.3108 19.6616 25.4299 21.2344L26.7634 24.7237C27.2549 26.0096 26.0719 27.3067 24.7462 26.9354L20.5781 25.768C19.1652 26.4372 17.5857 26.8112 15.9209 26.8112Z" fill="#CCCCCC"/>
</svg>
