<svg width="29" height="24" viewBox="0 0 29 24" fill="none" xmlns="http://www.w3.org/2000/svg">
<path d="M6.74778 0C3.26271 0 0.4375 2.82521 0.4375 6.31028H2.43022C2.43022 3.92575 4.36325 1.99272 6.74778 1.99272V0ZM22.6895 0H6.74778V1.99272H22.6895V0ZM28.9998 6.31028C28.9998 2.82521 26.1747 0 22.6895 0V1.99272C25.074 1.99272 27.0071 3.92575 27.0071 6.31028H28.9998ZM28.9998 7.93507V6.31028H27.0071V7.93507H28.9998ZM26.3428 11.6242C26.3428 10.6072 26.9965 9.74028 27.9094 9.42556L27.2599 7.54166C25.5679 8.12502 24.3501 9.73111 24.3501 11.6242H26.3428ZM27.9094 13.8228C26.9965 13.5081 26.3428 12.6411 26.3428 11.6242H24.3501C24.3501 13.5173 25.5679 15.1234 27.2599 15.7067L27.9094 13.8228ZM28.9998 16.9381V15.3134H27.0071V16.9381H28.9998ZM22.6895 23.2484C26.1747 23.2484 28.9998 20.4232 28.9998 16.9381H27.0071C27.0071 19.3226 25.074 21.2557 22.6895 21.2557V23.2484ZM6.74778 23.2484H22.6895V21.2557H6.74778V23.2484ZM0.4375 16.9381C0.4375 20.4232 3.26271 23.2484 6.74778 23.2484V21.2557C4.36325 21.2557 2.43022 19.3226 2.43022 16.9381H0.4375ZM0.4375 15.3134V16.9381H2.43022V15.3134H0.4375ZM2.17744 15.7067C3.86941 15.1234 5.08718 13.5173 5.08718 11.6242H3.09446C3.09446 12.6411 2.44087 13.5081 1.5279 13.8228L2.17744 15.7067ZM5.08718 11.6242C5.08718 9.73111 3.86941 8.12502 2.17744 7.54166L1.5279 9.42556C2.44087 9.74028 3.09446 10.6072 3.09446 11.6242H5.08718ZM0.4375 6.31028V7.93507H2.43022V6.31028H0.4375ZM2.17744 7.54166C2.26619 7.57225 2.43022 7.68917 2.43022 7.93507H0.4375C0.4375 8.68642 0.961293 9.23014 1.5279 9.42556L2.17744 7.54166ZM2.43022 15.3134C2.43022 15.5591 2.26619 15.6762 2.17744 15.7067L1.5279 13.8228C0.961293 14.0182 0.4375 14.562 0.4375 15.3134H2.43022ZM27.2599 15.7067C27.1711 15.6762 27.0071 15.5591 27.0071 15.3134H28.9998C28.9998 14.562 28.476 14.0182 27.9094 13.8228L27.2599 15.7067ZM27.0071 7.93507C27.0071 7.68917 27.1711 7.57225 27.2599 7.54166L27.9094 9.42556C28.476 9.23014 28.9998 8.68642 28.9998 7.93507H27.0071Z" fill="#22202A"/>
<path d="M18.7041 4.98153V0.996094" stroke="#22202A" stroke-width="1.5" stroke-linecap="round" stroke-linejoin="round"/>
<path d="M18.7041 13.6171V9.63165" stroke="#22202A" stroke-width="1.5" stroke-linecap="round" stroke-linejoin="round"/>
<path d="M18.7041 22.2522V18.2667" stroke="#22202A" stroke-width="1.5" stroke-linecap="round" stroke-linejoin="round"/>
</svg>
