<svg width="49" height="49" viewBox="0 0 49 49" fill="none" xmlns="http://www.w3.org/2000/svg">
<path opacity="0.5" d="M23.7971 34.4904L21.6404 32.3337" stroke="#22202A" stroke-width="2.0267" stroke-linecap="round"/>
<path opacity="0.5" d="M27.0317 31.2558L24.875 29.0991" stroke="#22202A" stroke-width="2.0267" stroke-linecap="round"/>
<path opacity="0.5" d="M30.266 28.0204L28.1094 25.8638" stroke="#22202A" stroke-width="2.0267" stroke-linecap="round"/>
<path opacity="0.5" d="M23.873 15.396L33.9412 25.4644" stroke="#22202A" stroke-width="2.0267" stroke-linecap="round"/>
<path d="M2 47.6596L10.8567 38.803" stroke="#22202A" stroke-width="2.0267" stroke-linecap="round"/>
<path d="M39.972 9.68821L45.3638 15.0799M39.972 9.68821L34.5801 4.29646M39.972 9.68821L45.3638 4.29646M45.3638 15.0799C45.3638 15.0799 46.6781 16.3944 47.5205 17.2366M45.3638 15.0799L34.5801 25.8634L22.7186 37.7253C21.5272 38.9163 19.5963 38.9163 18.4049 37.7253M34.5801 4.29646C34.5801 4.29646 33.2659 2.98199 32.4234 2.13976M34.5801 4.29646L23.7968 15.0799L11.935 26.9419C10.7438 28.1329 10.7438 30.0639 11.935 31.2553M45.3638 4.29646L43.2663 2.19899C43.2279 2.16056 43.2029 2.11066 43.1955 2.05683C43.1891 2.00949 43.2465 1.98097 43.28 2.01477L47.6452 6.38C47.6791 6.41379 47.6507 6.47116 47.6034 6.4646C47.5494 6.45719 47.4994 6.43237 47.4613 6.39397L45.3638 4.29646ZM18.4049 37.7253L17.3267 38.8035C15.54 40.5902 12.6433 40.5902 10.8566 38.8035C9.06994 37.0171 9.06994 34.1201 10.8566 32.3334L11.935 31.2553M18.4049 37.7253L11.935 31.2553" stroke="#22202A" stroke-width="2.0267" stroke-linecap="round"/>
</svg>
