<svg width="23" height="23" viewBox="0 0 23 23" fill="none" xmlns="http://www.w3.org/2000/svg">
<path d="M11.4991 0C5.14773 0 0 5.14946 0 11.5009C0 17.8523 5.14773 23 11.4991 23C17.8505 23 23 17.8523 23 11.5009C23 5.14946 17.8505 0 11.4991 0ZM22.0681 11.041H13.8176C13.8979 7.90464 14.8993 4.86126 16.6969 2.28999C19.7816 4.03812 21.9059 7.28845 22.0681 11.041ZM11.4991 0.919793C13.0531 0.919793 14.5277 1.25975 15.8582 1.86288C13.9982 4.56866 12.9665 7.75759 12.8892 11.0401H10.1108C10.033 7.75754 9.00104 4.56865 7.14091 1.86288C8.50953 1.24057 9.99568 0.918981 11.4991 0.919793ZM6.30222 2.28999C8.10011 4.86115 9.10148 7.9046 9.18154 11.041H0.93101C1.0915 7.28845 3.21755 4.03725 6.30222 2.28999ZM0.931873 11.9608H9.19103C9.11202 15.0985 8.11091 18.1436 6.31258 20.716C3.22273 18.9697 1.09323 15.7167 0.931873 11.9608ZM11.4991 22.0802C9.94602 22.0802 8.47141 21.7411 7.14091 21.1371C9.00154 18.4322 10.0336 15.2438 10.1108 11.9616H12.8892C12.9663 15.2436 13.998 18.4321 15.8582 21.1371C14.4893 21.7595 13.0029 22.0811 11.4991 22.0802ZM16.6848 20.7169C14.8872 18.1439 13.8869 15.0986 13.809 11.9608H22.0681C21.9068 15.7176 19.7764 18.9705 16.6848 20.7169Z" fill="#F2AE49"/>
</svg>
