<svg width="56" height="50" viewBox="0 0 56 50" fill="none" xmlns="http://www.w3.org/2000/svg">
<path d="M50.5101 4.3283C49.1372 2.9554 47.5072 1.8665 45.7133 1.12383C43.9194 0.381156 41.9967 -0.000728041 40.0551 1.04199e-06C38.1135 0.000730125 36.1911 0.384058 34.3977 1.12808C32.6044 1.8721 30.9752 2.96222 29.6033 4.33615L27.8125 6.14874L26.0367 4.34008L26.0251 4.32853C24.6529 2.95628 23.0238 1.86774 21.2308 1.12508C19.4379 0.382419 17.5163 0.000175886 15.5756 0.000175886C13.6349 0.000175886 11.7133 0.382419 9.92035 1.12508C8.12742 1.86774 6.49832 2.95628 5.12607 4.32853L4.3283 5.12631C1.55694 7.89768 0 11.6565 0 15.5758C0 19.4951 1.55694 23.2539 4.3283 26.0252L25.3836 47.0803L27.7613 49.5715L27.818 49.5147L27.8795 49.5762L30.1073 47.2257L51.3079 26.0249C54.0751 23.2513 55.6292 19.4934 55.6292 15.5754C55.6292 11.6575 54.0751 7.89953 51.3079 5.12596L50.5101 4.3283ZM48.695 23.4126L27.818 44.29L6.94051 23.4126C4.862 21.334 3.6943 18.515 3.6943 15.5755C3.6943 12.636 4.862 9.81693 6.94051 7.7384L7.7384 6.94063C9.81591 4.86313 12.6333 3.69552 15.5713 3.69442C18.5094 3.69331 21.3276 4.85881 23.4067 6.93474L27.8046 11.4128L32.2234 6.94063C33.2526 5.91143 34.4744 5.09503 35.8191 4.53804C37.1638 3.98104 38.605 3.69436 40.0605 3.69436C41.516 3.69436 42.9573 3.98104 44.302 4.53804C45.6467 5.09503 46.8685 5.91143 47.8977 6.94063L48.6954 7.73828C50.7708 9.81853 51.9363 12.6371 51.9362 15.5755C51.9361 18.514 50.7705 21.3325 48.695 23.4126Z" fill="#EED0A3"/>
</svg>
