<svg width="36" height="36" viewBox="0 0 36 36" fill="none" xmlns="http://www.w3.org/2000/svg">
<path d="M18 36C27.9411 36 36 27.9411 36 18C36 8.05887 27.9411 0 18 0C8.05887 0 0 8.05887 0 18C0 27.9411 8.05887 36 18 36Z" fill="#3C5A99"/>
<path d="M19.399 26.9994V18.801H22.1623L22.5771 15.5912H19.399V13.5486C19.399 12.6205 19.6557 11.9912 20.9846 11.9912H22.6686V9.12949C22.3768 9.09082 21.3713 9.00293 20.2006 9.00293C17.7572 9.00293 16.0838 10.4936 16.0838 13.2322V15.5947H13.3311V18.8045H16.0838V26.9994H19.399Z" fill="white"/>
</svg>
