<svg width="15" height="13" viewBox="0 0 15 13" fill="none" xmlns="http://www.w3.org/2000/svg">
<path d="M10.2332 0.651611C10.2332 0.651611 9.7624 0.702139 9.55225 1.33258L8.87128 4.05646L11.5952 6.09937H13.6381C15 6.09937 15 4.73743 15 4.73743L12.9571 2.69452C12.2761 2.01355 11.5952 2.01355 10.9142 2.01355V1.33258C10.9142 1.33258 10.9142 0.651611 10.2332 0.651611ZM3.42352 2.01355C3.42352 2.01355 2.94222 2.00415 2.43925 2.25557C1.93629 2.50698 1.38062 3.14845 1.38062 4.05646V5.37046C1.38007 5.38653 1.38007 5.40246 1.38062 5.4184V6.09937V6.78034C1.38062 8.14228 1.38062 8.82325 0.699646 8.82325C0.699646 8.82325 0.0186768 8.82325 0.0186768 9.50422V12.2281C0.0186768 12.2281 0.0186768 12.9091 0.699646 12.9091C1.38062 12.9091 1.38062 12.2281 1.38062 12.2281V10.1852C1.86233 10.1852 2.32117 9.99846 2.74256 9.77824V12.2281C2.74256 12.2281 2.74256 12.9091 3.42352 12.9091C4.10449 12.9091 4.10449 12.2281 4.10449 12.2281V8.82325H8.19031L9.09478 11.5365C9.55225 12.9089 10.2332 12.9091 10.2332 12.9091H10.9142C10.9142 12.9091 11.5952 12.9091 11.5952 12.2281C11.5952 11.5471 10.9142 11.5471 10.9142 11.5471V8.14228C10.9142 6.92933 10.0532 6.43291 9.55225 6.09937L7.50662 4.73743H2.74256V4.05646C2.74256 3.60252 2.86772 3.56289 3.04586 3.47396C3.22386 3.38489 3.42352 3.37549 3.42352 3.37549C4.34447 3.38856 4.34447 2.00048 3.42352 2.01355Z" fill="black"/>
</svg>
