<svg width="31" height="32" viewBox="0 0 31 32" fill="none" xmlns="http://www.w3.org/2000/svg">
<path d="M29.9996 31.8367H30.0996V31.7367V30.2064V30.1064H29.9996H0.924072H0.824072V30.2064V31.7367V31.8367H0.924072H29.9996Z" fill="black" stroke="black" stroke-width="0.2"/>
<path d="M16.3266 4.19154C16.3266 3.71374 15.9393 3.32639 15.4614 3.32639C14.9836 3.32639 14.5963 3.71374 14.5963 4.19154V8.78241C14.5963 9.26023 14.9836 9.64756 15.4614 9.64756C15.9393 9.64756 16.3266 9.26023 16.3266 8.78241V4.19154Z" fill="black" stroke="black" stroke-width="0.2"/>
<path d="M13.1665 5.62168C12.6887 5.62168 12.3014 6.00901 12.3014 6.48683C12.3014 6.96464 12.6887 7.35197 13.1665 7.35197H17.7574C18.2352 7.35197 18.6225 6.96464 18.6225 6.48683C18.6225 6.00901 18.2352 5.62168 17.7574 5.62168H13.1665Z" fill="black" stroke="black" stroke-width="0.2"/>
<path d="M12.4009 2.76133H18.5221C18.8894 2.76133 19.1872 3.05913 19.1872 3.42648V9.54764C19.1872 9.91501 18.8894 10.2128 18.5221 10.2128H12.4009C12.0335 10.2128 11.7358 9.91501 11.7358 9.54764V3.42648C11.7358 3.05913 12.0335 2.76133 12.4009 2.76133ZM18.5221 1.03104H12.4009C11.0779 1.03104 10.0055 2.10352 10.0055 3.42648V9.54764C10.0055 10.8706 11.0779 11.9431 12.4009 11.9431H18.5221C19.8451 11.9431 20.9175 10.8706 20.9175 9.54764V3.42648C20.9175 2.10352 19.8451 1.03104 18.5221 1.03104Z" fill="black" stroke="black" stroke-width="0.2"/>
<path d="M10.4042 8.78235V8.68235H10.3042H6.28006C4.95706 8.68235 3.88462 9.75479 3.88462 11.0778V30.2064V30.3064H3.98462H5.51491H5.61491V30.2064V11.0778C5.61491 10.7104 5.91269 10.4126 6.28006 10.4126H10.3042H10.4042V10.3126V8.78235Z" fill="black" stroke="black" stroke-width="0.2"/>
<path d="M20.6191 8.68223H20.5191V8.78223V10.3125V10.4125H20.6191H24.6433C25.0106 10.4125 25.3084 10.7103 25.3084 11.0777V30.2063V30.3063H25.4084H26.9387H27.0387V30.2063V11.0777C27.0387 9.75467 25.9663 8.68223 24.6433 8.68223H20.6191Z" fill="black" stroke="black" stroke-width="0.2"/>
<path d="M13.9317 31.0718H14.0317V30.9718V25.6158C14.0317 24.8258 14.672 24.1855 15.4619 24.1855C16.2519 24.1855 16.8922 24.8258 16.8922 25.6158V30.9718V31.0718H16.9922H18.5225H18.6225V30.9718V25.6158C18.6225 23.8702 17.2075 22.4552 15.4619 22.4552C13.7164 22.4552 12.3014 23.8702 12.3014 25.6158V30.9718V31.0718H12.4014H13.9317Z" fill="black" stroke="black" stroke-width="0.2"/>
<path d="M10.8711 16.5336H10.9711V16.4336V13.373V13.273H10.8711H7.81055H7.71055V13.373V16.4336V16.5336H7.81055H10.8711Z" fill="black" stroke="black" stroke-width="0.2"/>
<path d="M10.8711 21.1249H10.9711V21.0249V17.9644V17.8644H10.8711H7.81055H7.71055V17.9644V21.0249V21.1249H7.81055H10.8711Z" fill="black" stroke="black" stroke-width="0.2"/>
<path d="M16.9922 16.5336H17.0922V16.4336V13.373V13.273H16.9922H13.9316H13.8316V13.373V16.4336V16.5336H13.9316H16.9922Z" fill="black" stroke="black" stroke-width="0.2"/>
<path d="M16.9922 21.1249H17.0922V21.0249V17.9644V17.8644H16.9922H13.9316H13.8316V17.9644V21.0249V21.1249H13.9316H16.9922Z" fill="black" stroke="black" stroke-width="0.2"/>
<path d="M23.1133 16.5337H23.2133V16.4337V13.3731V13.2731H23.1133H20.0527H19.9527V13.3731V16.4337V16.5337H20.0527H23.1133Z" fill="black" stroke="black" stroke-width="0.2"/>
<path d="M23.1133 21.1249H23.2133V21.0249V17.9643V17.8643H23.1133H20.0527H19.9527V17.9643V21.0249V21.1249H20.0527H23.1133Z" fill="black" stroke="black" stroke-width="0.2"/>
</svg>
