<svg width="25" height="25" viewBox="0 0 25 25" fill="none" xmlns="http://www.w3.org/2000/svg">
<path d="M12.1706 16.1801C14.0215 16.1801 15.5219 14.6797 15.5219 12.8288C15.5219 10.9779 14.0215 9.47754 12.1706 9.47754C10.3197 9.47754 8.81934 10.9779 8.81934 12.8288C8.81934 14.6797 10.3197 16.1801 12.1706 16.1801Z" stroke="black" stroke-width="2" stroke-linecap="round" stroke-linejoin="round"/>
<path d="M20.6858 11.0366L19.4596 8.07566L21.1076 6.12656L18.8734 3.89238L16.935 5.54897L13.9111 4.30542L13.2157 1.6582H11.0326L10.3267 4.34048L7.37234 5.58585L5.46836 3.89238L3.23418 6.12656L4.85772 8.12487L3.6503 11.0935L1 11.712V13.9462L3.68226 14.6784L4.92741 17.6323L3.23418 19.5316L5.46836 21.7658L7.46925 20.1352L10.3802 21.3327L11.0538 24H13.288L13.9633 21.3337L16.9242 20.1075C17.4178 20.4603 18.8734 21.7658 18.8734 21.7658L21.1076 19.5316L19.4497 17.5761L20.6763 14.6142L23.3417 13.9207L23.3418 11.712L20.6858 11.0366Z" stroke="black" stroke-width="2" stroke-linecap="round" stroke-linejoin="round"/>
</svg>
