<svg width="18" height="18" viewBox="0 0 18 18" fill="none" xmlns="http://www.w3.org/2000/svg">
<path d="M2.21813 11.8622L6.1463 15.7903C7.75921 17.4032 10.378 17.4032 11.9996 15.7903L15.8063 11.9836C17.4192 10.3707 17.4192 7.75188 15.8063 6.13036L11.8695 2.21086C11.0457 1.38707 9.90973 0.944821 8.74775 1.00552L4.41201 1.21364C2.67772 1.29168 1.29895 2.67044 1.21224 4.39607L1.00412 8.73176C0.952095 9.9024 1.39434 11.0384 2.21813 11.8622Z" stroke="#1E1E1E" stroke-linecap="round" stroke-linejoin="round"/>
<path d="M6.83999 9.00041C8.03726 9.00041 9.00785 8.02981 9.00785 6.83254C9.00785 5.63526 8.03726 4.66467 6.83999 4.66467C5.64271 4.66467 4.67212 5.63526 4.67212 6.83254C4.67212 8.02981 5.64271 9.00041 6.83999 9.00041Z" stroke="#1E1E1E" stroke-linecap="round"/>
</svg>
