<svg width="19" height="19" viewBox="0 0 19 19" fill="none" xmlns="http://www.w3.org/2000/svg">
<path d="M1 1H2.47996C3.39854 1 4.1215 1.79101 4.04495 2.70109L3.339 11.1725C3.21992 12.5589 4.31711 13.7497 5.71201 13.7497H14.7703C15.9951 13.7497 17.0668 12.746 17.1603 11.5297L17.6196 5.15065C17.7217 3.73875 16.65 2.59052 15.2296 2.59052H4.24909" stroke="#1E1E1E" stroke-miterlimit="10" stroke-linecap="round" stroke-linejoin="round"/>
<path d="M13.1203 18.0109C13.7075 18.0109 14.1835 17.5349 14.1835 16.9477C14.1835 16.3605 13.7075 15.8845 13.1203 15.8845C12.5331 15.8845 12.0571 16.3605 12.0571 16.9477C12.0571 17.5349 12.5331 18.0109 13.1203 18.0109Z" stroke="#1E1E1E" stroke-miterlimit="10" stroke-linecap="round" stroke-linejoin="round"/>
<path d="M6.31611 18.0109C6.90329 18.0109 7.37929 17.5349 7.37929 16.9477C7.37929 16.3605 6.90329 15.8845 6.31611 15.8845C5.72893 15.8845 5.25293 16.3605 5.25293 16.9477C5.25293 17.5349 5.72893 18.0109 6.31611 18.0109Z" stroke="#1E1E1E" stroke-miterlimit="10" stroke-linecap="round" stroke-linejoin="round"/>
<path d="M6.95361 6.10327H17.1601" stroke="#1E1E1E" stroke-miterlimit="10" stroke-linecap="round" stroke-linejoin="round"/>
</svg>
