<svg width="13" height="13" viewBox="0 0 13 13" fill="none" xmlns="http://www.w3.org/2000/svg">
<path d="M7.17874 5.30902L10.7277 6.57652V11.7471C10.7277 11.8476 10.6878 11.9439 10.6168 12.0149C10.5458 12.0859 10.4495 12.1258 10.349 12.1258H8.83419C8.73375 12.1258 8.63742 12.0859 8.5664 12.0149C8.49537 11.9439 8.45547 11.8476 8.45547 11.7471V9.09614H4.66835V11.7471C4.66835 11.8476 4.62845 11.9439 4.55743 12.0149C4.48641 12.0859 4.39008 12.1258 4.28964 12.1258H2.77479C2.67435 12.1258 2.57802 12.0859 2.507 12.0149C2.43598 11.9439 2.39608 11.8476 2.39608 11.7471V6.68398C1.51652 6.37036 0.881226 5.53767 0.881226 4.55159C0.881226 4.35071 0.961025 4.15806 1.10307 4.01601C1.24511 3.87397 1.43777 3.79417 1.63865 3.79417C1.83953 3.79417 2.03219 3.87397 2.17423 4.01601C2.31628 4.15806 2.39608 4.35071 2.39608 4.55159C2.39645 4.75236 2.47637 4.9448 2.61833 5.08676C2.7603 5.22872 2.95273 5.30864 3.1535 5.30902H7.17874ZM13 2.65803V3.41546C13 3.81722 12.8404 4.20253 12.5563 4.48662C12.2722 4.77071 11.8869 4.93031 11.4852 4.93031H10.7277V5.77247L7.69805 4.69053V1.14318C7.69805 0.805892 8.10564 0.636892 8.34446 0.87548L8.99017 1.5219H10.2596C10.5178 1.5219 10.8217 1.70936 10.937 1.94061L11.1065 2.27932H12.6213C12.7218 2.27932 12.8181 2.31922 12.8891 2.39024C12.9601 2.46126 13 2.55759 13 2.65803ZM10.349 2.65803C10.349 2.58313 10.3268 2.50991 10.2852 2.44763C10.2436 2.38535 10.1845 2.33681 10.1153 2.30815C10.0461 2.27948 9.9699 2.27198 9.89644 2.2866C9.82298 2.30121 9.7555 2.33728 9.70253 2.39024C9.64957 2.44321 9.6135 2.51069 9.59889 2.58415C9.58428 2.65761 9.59177 2.73376 9.62044 2.80296C9.6491 2.87216 9.69764 2.93131 9.75992 2.97292C9.8222 3.01453 9.89542 3.03674 9.97032 3.03674C10.0708 3.03674 10.1671 2.99685 10.2381 2.92582C10.3091 2.8548 10.349 2.75847 10.349 2.65803Z" fill="black"/>
</svg>
