<svg width="43" height="38" viewBox="0 0 43 38" fill="none" xmlns="http://www.w3.org/2000/svg">
<g clip-path="url(#clip0_697_727)">
<path d="M21.1453 3.1665C25.8843 3.1665 30.1583 4.63439 33.9675 7.57015C37.7766 10.5059 40.521 14.3158 42.2006 18.9998C40.521 23.6839 37.7766 27.4938 33.9675 30.4295C30.1583 33.3653 25.8843 34.8332 21.1453 34.8332C16.4064 34.8332 12.1173 33.3653 8.27817 30.4295C4.43902 27.4938 1.67963 23.6839 0 18.9998C1.67963 14.3158 4.43902 10.5059 8.27817 7.57015C12.1173 4.63439 16.4064 3.1665 21.1453 3.1665ZM21.1453 29.5884C23.7847 29.5884 26.0342 28.5493 27.8938 26.4712C29.7534 24.3931 30.6832 21.9026 30.6832 18.9998C30.6832 16.0971 29.7534 13.6066 27.8938 11.5285C26.0342 9.45036 23.7847 8.4113 21.1453 8.4113C18.5059 8.4113 16.2414 9.45036 14.3518 11.5285C12.4622 13.6066 11.5174 16.0971 11.5174 18.9998C11.5174 21.9026 12.4622 24.3931 14.3518 26.4712C16.2414 28.5493 18.5059 29.5884 21.1453 29.5884ZM21.1003 12.6665C22.69 12.6665 24.0547 13.2767 25.1944 14.4972C26.3342 15.7177 26.904 17.2186 26.904 18.9998C26.904 20.7811 26.3342 22.282 25.1944 23.5024C24.0547 24.7229 22.69 25.3332 21.1003 25.3332C19.5107 25.3332 18.161 24.7229 17.0512 23.5024C15.9415 22.282 15.3866 20.7811 15.3866 18.9998C15.3866 17.2186 15.9415 15.7177 17.0512 14.4972C18.161 13.2767 19.5107 12.6665 21.1003 12.6665Z" fill="#141414"/>
</g>
<defs>
<clipPath id="clip0_697_727">
<rect width="42.4706" height="38" fill="white"/>
</clipPath>
</defs>
</svg>
