<svg width="15" height="14" viewBox="0 0 15 14" fill="none" xmlns="http://www.w3.org/2000/svg">
<path d="M9.22436 4.58256L11.3902 6.74843V13.968H9.94632V9.63624H4.89264L3.44873 11.8021V13.968H2.00482V9.63624L2.72678 8.91429V6.74843L0.560913 4.58256L1.28287 3.86061L2.72678 5.30452H4.17068V7.47038C4.17068 7.66185 4.24675 7.84548 4.38214 7.98088C4.51753 8.11627 4.70116 8.19233 4.89264 8.19233H7.78045C7.97193 8.19233 8.15556 8.11627 8.29095 7.98088C8.42634 7.84548 8.50241 7.66185 8.50241 7.47038V5.30452L9.22436 4.58256ZM12.8341 2.4167V0.972792L9.94632 3.86061L12.1122 6.02647L12.8341 5.30452L13.5561 6.02647L15 4.58256L12.8341 2.4167ZM7.41948 5.66549L2.3658 0.611815C2.17087 0.409668 1.85321 0.409668 1.64384 0.611815C1.4417 0.806743 1.4417 1.1244 1.64384 1.33377L6.69752 6.38745C6.89245 6.58959 7.21011 6.58959 7.41948 6.38745C7.62162 6.19252 7.62162 5.87486 7.41948 5.66549Z" fill="black"/>
</svg>
