<svg width="13" height="13" viewBox="0 0 13 13" fill="none" xmlns="http://www.w3.org/2000/svg">
<path d="M6.914 7.154H6.2V6.89C6.2 6.488 6.206 6.278 6.662 5.858C7.196 5.366 7.262 5.246 7.262 4.934V4.874C7.262 4.628 7.088 4.406 6.614 4.406C6.242 4.406 5.936 4.562 5.678 4.808L5.258 4.28C5.642 3.896 6.122 3.728 6.638 3.728C7.52 3.728 8.03 4.196 8.03 4.85V4.934C8.03 5.522 7.688 5.822 7.316 6.176C7.01 6.47 6.914 6.56 6.914 6.908V7.154ZM6.164 8.432V7.652H6.956V8.432H6.164Z" fill="#141414"/>
<circle cx="6.5" cy="6.5" r="6" stroke="black"/>
</svg>
