<svg width="36" height="36" viewBox="0 0 36 36" fill="none" xmlns="http://www.w3.org/2000/svg">
<path d="M18 36C27.9411 36 36 27.9411 36 18C36 8.05887 27.9411 0 18 0C8.05887 0 0 8.05887 0 18C0 27.9411 8.05887 36 18 36Z" fill="#607D8B"/>
<path d="M24.2827 10.8213H11.7179C10.2308 10.8213 9.0249 12.0271 9.0249 13.5143V22.4896C9.0249 23.9768 10.2308 25.1826 11.7179 25.1826H24.2827C25.7698 25.1826 26.9757 23.9768 26.9757 22.4896V13.5107C26.9757 12.0236 25.7698 10.8213 24.2827 10.8213ZM23.9171 12.6143L18.6366 17.8912C18.2886 18.2428 17.719 18.2463 17.3675 17.8947L17.364 17.8912L12.0835 12.6143H23.9171ZM25.1827 22.4896C25.1827 22.9854 24.7819 23.3861 24.2862 23.3861H11.7179C11.2222 23.3861 10.8214 22.9854 10.8214 22.4896V13.8799L16.0983 19.1568C17.1495 20.208 18.8511 20.208 19.9058 19.1568L25.1827 13.8799V22.4896Z" fill="white"/>
</svg>
