<svg width="24" height="24" viewBox="0 0 24 24" fill="none" xmlns="http://www.w3.org/2000/svg">
<path fill-rule="evenodd" clip-rule="evenodd" d="M7.95991 4.11203C9.22226 2.76561 10.9439 2 12.7501 2C14.5554 2 16.2779 2.76675 17.54 4.1118L17.5402 4.11204C18.8001 5.4559 19.5001 7.2692 19.5001 9.15C19.5001 12.7807 20.2287 15.0611 20.9178 16.4087C21.2631 17.0839 21.6017 17.5314 21.842 17.802C21.9624 17.9375 22.0586 18.0292 22.1194 18.0832C22.1498 18.1102 22.1714 18.1278 22.1827 18.1368L22.1914 18.1436C22.4525 18.3337 22.5629 18.6699 22.4645 18.9781C22.3653 19.289 22.0764 19.5 21.7501 19.5H3.75005C3.42372 19.5 3.13483 19.289 3.03558 18.9781C2.93718 18.6699 3.04757 18.3336 3.30868 18.1436L3.31739 18.1368C3.32873 18.1278 3.35031 18.1102 3.38072 18.0832C3.44151 18.0292 3.53772 17.9375 3.65806 17.802C3.89836 17.5314 4.23701 17.0839 4.5823 16.4087C5.27142 15.0611 6.00005 12.7807 6.00005 9.15C6.00005 7.2692 6.70004 5.4559 7.9599 4.11204L7.95991 4.11203ZM5.38897 18H20.1111C19.939 17.7405 19.76 17.4391 19.5823 17.0916C18.7714 15.5059 18.0001 12.9863 18.0001 9.15C18.0001 7.63691 17.4361 6.19432 16.4461 5.1382M5.38897 18C5.56113 17.7405 5.74011 17.4391 5.91781 17.0916C6.72869 15.5059 7.50005 12.9863 7.50005 9.15C7.50005 7.6368 8.06407 6.1941 9.05421 5.13796C10.0439 4.08238 11.3742 3.5 12.7501 3.5C14.1246 3.5 15.456 4.08316 16.4459 5.13796" fill="black"/>
<path fill-rule="evenodd" clip-rule="evenodd" d="M10.6439 21.101C11.0024 20.8935 11.4612 21.0159 11.6687 21.3744C11.7785 21.5639 11.9361 21.7212 12.1258 21.8306C12.3155 21.94 12.5307 21.9976 12.7497 21.9976C12.9687 21.9976 13.1838 21.94 13.3735 21.8306C13.5632 21.7212 13.7209 21.5639 13.8306 21.3744C14.0381 21.0159 14.4969 20.8935 14.8554 21.101C15.2139 21.3086 15.3363 21.7674 15.1287 22.1259C14.8872 22.543 14.5403 22.8893 14.1227 23.1301C13.7052 23.3708 13.2317 23.4976 12.7497 23.4976C12.2677 23.4976 11.7941 23.3708 11.3766 23.1301C10.959 22.8893 10.6121 22.543 10.3706 22.1259C10.163 21.7674 10.2854 21.3086 10.6439 21.101Z" fill="black"/>
</svg>
