<svg width="31" height="42" viewBox="0 0 31 42" fill="none" xmlns="http://www.w3.org/2000/svg">
<path d="M16.8965 16.6201C16.4079 14.692 15.7642 12.8066 14.9718 10.9822C14.9437 10.9192 14.9277 10.8515 14.9247 10.7825C14.8827 9.78586 14.4717 1.88593 11.9958 2.00125C9.65611 2.10991 9.95868 8.99144 10.0588 10.5666C10.065 10.6644 10.0449 10.7621 10.0006 10.8495C9.95634 10.937 9.88946 11.0109 9.80692 11.0638L3.03701 15.4659C2.72061 15.6565 2.45886 15.9256 2.27716 16.2472C2.09546 16.5688 1.99999 16.9319 2 17.3013V19.4698C2.00005 20.1216 2.23607 20.7514 2.66443 21.2428C3.09279 21.7341 3.68454 22.0538 4.3303 22.1427L8.47791 22.7138C10.0507 22.8659 10.192 25.2713 10.1929 27.162C10.1929 27.1753 10.1934 27.1883 10.1945 27.2016L11.1036 38.6322C11.1036 38.988 11.245 39.3293 11.4966 39.581C11.7483 39.8327 12.0896 39.974 12.4454 39.9741H15.3461C15.5223 39.9741 15.6968 39.9393 15.8596 39.8719C16.0224 39.8045 16.1704 39.7056 16.295 39.581C16.4196 39.4564 16.5184 39.3085 16.5858 39.1457C16.6533 38.9829 16.688 38.8084 16.6879 38.6322L17.0028 32.5926C17.0209 32.4594 17.0866 32.3372 17.1879 32.2488C17.2891 32.1603 17.4189 32.1116 17.5534 32.1115H21.6722C21.805 32.1115 21.9335 32.1591 22.0343 32.2456C22.1351 32.3322 22.2015 32.452 22.2216 32.5833L22.6612 38.6322C22.6612 38.9881 22.8026 39.3294 23.0542 39.581C23.3059 39.8327 23.6472 39.9741 24.0031 39.9741H26.3444C26.7003 39.974 27.0416 39.8327 27.2932 39.581C27.5449 39.3293 27.6862 38.988 27.6862 38.6322L29.268 24.2011C29.2872 23.7199 29.2098 23.2397 29.0401 22.789C28.8705 22.3382 28.6122 21.9261 28.2804 21.577C27.9487 21.2279 27.5503 20.9489 27.1088 20.7565C26.6672 20.5642 26.1916 20.4624 25.7101 20.4571L18.7344 20.38C18.3891 20.3723 18.0585 20.2388 17.8048 20.0044C17.5511 19.7701 17.3917 19.4511 17.3567 19.1075C17.2546 18.2697 17.1006 17.439 16.8965 16.6201Z" stroke="black" stroke-opacity="0.3" stroke-width="3" stroke-linecap="round" stroke-linejoin="round"/>
</svg>
