<svg width="39" height="39" viewBox="0 0 39 39" fill="none" xmlns="http://www.w3.org/2000/svg">
<path d="M24.6336 38.518H13.8844C4.15636 38.518 0 34.3616 0 24.6336V13.8844C0 4.15636 4.15636 0 13.8844 0H24.6336C34.3616 0 38.518 4.15636 38.518 13.8844V24.6336C38.518 34.3616 34.3616 38.518 24.6336 38.518ZM13.8844 2.6873C5.62541 2.6873 2.6873 5.62541 2.6873 13.8844V24.6336C2.6873 32.8925 5.62541 35.8307 13.8844 35.8307H24.6336C32.8925 35.8307 35.8307 32.8925 35.8307 24.6336V13.8844C35.8307 5.62541 32.8925 2.6873 24.6336 2.6873H13.8844Z" fill="#EED0A3"/>
<path d="M13.3109 25.2246C12.5585 25.2246 11.8598 25.0455 11.2507 24.7051C9.76371 23.8631 8.95752 22.197 8.95752 20.0113V2.13186C8.95752 1.39733 9.56664 0.788208 10.3012 0.788208C11.0357 0.788208 11.6448 1.39733 11.6448 2.13186V20.0113C11.6448 21.1758 11.9852 22.0357 12.5764 22.3582C13.2035 22.7165 14.1709 22.5373 15.2279 21.9103L17.5927 20.495C18.5601 19.9217 19.9396 19.9217 20.907 20.495L23.2719 21.9103C24.3468 22.5553 25.3142 22.7165 25.9233 22.3582C26.5145 22.0178 26.8549 21.1579 26.8549 20.0113V2.13186C26.8549 1.39733 27.4641 0.788208 28.1986 0.788208C28.9331 0.788208 29.5422 1.39733 29.5422 2.13186V20.0113C29.5422 22.197 28.736 23.8631 27.2491 24.7051C25.7621 25.5471 23.8093 25.368 21.8924 24.2214L19.5276 22.8061C19.4201 22.7344 19.0797 22.7344 18.9722 22.8061L16.6074 24.2214C15.4966 24.8843 14.35 25.2246 13.3109 25.2246Z" fill="#EED0A3"/>
<path d="M24.6336 38.518H13.8844C4.15636 38.518 0 34.3616 0 24.6336V13.8844C0 4.15636 4.15636 0 13.8844 0H24.6336C34.3616 0 38.518 4.15636 38.518 13.8844V24.6336C38.518 34.3616 34.3616 38.518 24.6336 38.518ZM13.8844 2.6873C5.62541 2.6873 2.6873 5.62541 2.6873 13.8844V24.6336C2.6873 32.8925 5.62541 35.8307 13.8844 35.8307H24.6336C32.8925 35.8307 35.8307 32.8925 35.8307 24.6336V13.8844C35.8307 5.62541 32.8925 2.6873 24.6336 2.6873H13.8844Z" fill="#EED0A3"/>
<path d="M13.3109 25.2246C12.5585 25.2246 11.8598 25.0455 11.2507 24.7051C9.76371 23.8631 8.95752 22.197 8.95752 20.0113V2.13186C8.95752 1.39733 9.56664 0.788208 10.3012 0.788208C11.0357 0.788208 11.6448 1.39733 11.6448 2.13186V20.0113C11.6448 21.1758 11.9852 22.0357 12.5764 22.3582C13.2035 22.7165 14.1709 22.5373 15.2279 21.9103L17.5927 20.495C18.5601 19.9217 19.9396 19.9217 20.907 20.495L23.2719 21.9103C24.3468 22.5553 25.3142 22.7165 25.9233 22.3582C26.5145 22.0178 26.8549 21.1579 26.8549 20.0113V2.13186C26.8549 1.39733 27.4641 0.788208 28.1986 0.788208C28.9331 0.788208 29.5422 1.39733 29.5422 2.13186V20.0113C29.5422 22.197 28.736 23.8631 27.2491 24.7051C25.7621 25.5471 23.8093 25.368 21.8924 24.2214L19.5276 22.8061C19.4201 22.7344 19.0797 22.7344 18.9722 22.8061L16.6074 24.2214C15.4966 24.8843 14.35 25.2246 13.3109 25.2246Z" fill="#EED0A3"/>
</svg>
