<svg width="49" height="49" viewBox="0 0 49 49" fill="none" xmlns="http://www.w3.org/2000/svg">
<path d="M24.044 27.0495C22.558 27.0495 21.1052 26.6088 19.8696 25.7832C18.634 24.9576 17.6709 23.7841 17.1022 22.4111C16.5335 21.0382 16.3847 19.5274 16.6747 18.0699C16.9646 16.6124 17.6802 15.2735 18.731 14.2227C19.7818 13.1719 21.1207 12.4563 22.5782 12.1664C24.0357 11.8764 25.5465 12.0252 26.9194 12.5939C28.2924 13.1626 29.4659 14.1257 30.2915 15.3613C31.1171 16.5969 31.5578 18.0497 31.5578 19.5357C31.5555 21.5278 30.7632 23.4377 29.3546 24.8463C27.946 26.2549 26.0361 27.0472 24.044 27.0495ZM24.044 15.0275C23.1524 15.0275 22.2808 15.2919 21.5394 15.7873C20.798 16.2826 20.2202 16.9867 19.879 17.8105C19.5377 18.6343 19.4485 19.5407 19.6224 20.4153C19.7964 21.2898 20.2257 22.0931 20.8562 22.7236C21.4867 23.3541 22.29 23.7834 23.1645 23.9574C24.039 24.1313 24.9455 24.042 25.7693 23.7008C26.5931 23.3596 27.2971 22.7818 27.7925 22.0404C28.2879 21.299 28.5523 20.4274 28.5523 19.5357C28.551 18.3405 28.0756 17.1945 27.2304 16.3494C26.3852 15.5042 25.2393 15.0288 24.044 15.0275Z" fill="#EED0A3"/>
<path d="M24.044 45.0825L11.3675 30.1321C11.2955 30.0463 10.8442 29.4536 10.8442 29.4536C8.67862 26.6012 7.50861 23.1171 7.51369 19.5357C7.51369 15.1516 9.25527 10.9471 12.3553 7.84704C15.4553 4.74701 19.6599 3.00543 24.044 3.00543C28.4281 3.00543 32.6326 4.74701 35.7326 7.84704C38.8327 10.9471 40.5742 15.1516 40.5742 19.5357C40.5796 23.1156 39.4104 26.5984 37.246 29.4498L37.2437 29.4536C37.2437 29.4536 36.7929 30.0463 36.7257 30.1259L24.044 45.0825ZM13.2429 27.6431C13.2444 27.6441 13.5937 28.1062 13.6736 28.2057L24.044 40.4359L34.428 28.1884C34.494 28.1055 34.8462 27.6401 34.847 27.6389C36.6161 25.3082 37.5722 22.4618 37.5687 19.5357C37.5687 15.9487 36.1438 12.5086 33.6074 9.97225C31.071 7.43587 27.631 6.01094 24.044 6.01094C20.457 6.01094 17.0169 7.43587 14.4805 9.97225C11.9441 12.5086 10.5192 15.9487 10.5192 19.5357C10.5159 22.4633 11.4727 25.3113 13.2429 27.6431Z" fill="#EED0A3"/>
</svg>
