<svg width="15" height="13" viewBox="0 0 15 13" fill="none" xmlns="http://www.w3.org/2000/svg">
<path d="M7.1577 5.36831C4.93748 5.36831 1.78959 8.80055 1.78959 10.9671C1.78959 11.9429 2.53916 12.5258 3.79536 12.5258C5.16087 12.5258 6.06255 11.8246 7.1577 11.8246C8.26235 11.8246 9.16655 12.5258 10.52 12.5258C11.7762 12.5258 12.5258 11.9429 12.5258 10.9671C12.5258 8.80055 9.37792 5.36831 7.1577 5.36831ZM3.03991 5.01575C2.74914 4.04697 1.85333 3.41957 1.03917 3.61417C0.225004 3.80876 -0.199133 4.75182 0.0916402 5.72059C0.382413 6.68937 1.27822 7.31677 2.09238 7.12217C2.90654 6.92758 3.33068 5.98452 3.03991 5.01575ZM5.40859 4.43476C6.27364 4.20718 6.70644 3.03849 6.37541 1.82452C6.04437 0.61054 5.07476 -0.188805 4.20971 0.0387804C3.34466 0.266366 2.91186 1.43505 3.24289 2.64903C3.57392 3.863 4.54382 4.66263 5.40859 4.43476ZM13.2759 3.61445C12.4618 3.41985 11.5663 4.04725 11.2752 5.01603C10.9844 5.9848 11.4086 6.92786 12.2227 7.12245C13.0369 7.31705 13.9324 6.68965 14.2235 5.72087C14.5142 4.7521 14.0901 3.80904 13.2759 3.61445ZM8.90681 4.43476C9.77186 4.66235 10.7415 3.863 11.0725 2.64903C11.4035 1.43505 10.9707 0.266646 10.1057 0.0387804C9.24064 -0.189085 8.27102 0.61054 7.93999 1.82452C7.60895 3.03849 8.04176 4.20718 8.90681 4.43476Z" fill="black"/>
</svg>
