<svg width="26" height="26" viewBox="0 0 26 26" fill="none" xmlns="http://www.w3.org/2000/svg">
<path d="M14.8018 13L25.3945 2.40727C25.6039 2.16283 25.7133 1.8484 25.7008 1.52681C25.6884 1.20523 25.5551 0.900171 25.3275 0.672606C25.1 0.44504 24.7949 0.311726 24.4733 0.299305C24.1518 0.286883 23.8373 0.396269 23.5929 0.605603L13.0001 11.1984L2.40732 0.592825C2.16671 0.352215 1.84038 0.217041 1.5001 0.217041C1.15983 0.217041 0.833489 0.352215 0.592879 0.592825C0.352269 0.833435 0.217095 1.15977 0.217095 1.50005C0.217095 1.84032 0.352269 2.16666 0.592879 2.40727L11.1984 13L0.592879 23.5928C0.459119 23.7074 0.350482 23.8483 0.273786 24.0069C0.197089 24.1654 0.15399 24.3381 0.147192 24.514C0.140395 24.69 0.170047 24.8655 0.234286 25.0295C0.298526 25.1934 0.395967 25.3424 0.520493 25.4669C0.645018 25.5914 0.79394 25.6888 0.957911 25.7531C1.12188 25.8173 1.29736 25.847 1.47334 25.8402C1.64931 25.8334 1.82198 25.7903 1.98051 25.7136C2.13903 25.6369 2.28 25.5283 2.39455 25.3945L13.0001 14.8017L23.5929 25.3945C23.8373 25.6038 24.1518 25.7132 24.4733 25.7008C24.7949 25.6884 25.1 25.5551 25.3275 25.3275C25.5551 25.0999 25.6884 24.7949 25.7008 24.4733C25.7133 24.1517 25.6039 23.8373 25.3945 23.5928L14.8018 13Z" fill="white"/>
</svg>
