<svg width="17" height="17" viewBox="0 0 17 17" fill="none" xmlns="http://www.w3.org/2000/svg">
<path d="M8.16216 2.04054C4.78166 2.04054 2.04053 4.78167 2.04053 8.16217C2.04053 11.5427 4.78166 14.2838 8.16216 14.2838C8.72671 14.2838 9.18243 13.8281 9.18243 13.2635C9.18243 12.9983 9.0804 12.7602 8.91716 12.5765C8.76071 12.3997 8.65869 12.1616 8.65869 11.9032C8.65869 11.3386 9.11441 10.8829 9.67896 10.8829H10.8829C12.7602 10.8829 14.2838 9.35929 14.2838 7.48199C14.2838 4.47559 11.5427 2.04054 8.16216 2.04054ZM4.42116 8.16217C3.85661 8.16217 3.40089 7.70645 3.40089 7.1419C3.40089 6.57735 3.85661 6.12163 4.42116 6.12163C4.98571 6.12163 5.44143 6.57735 5.44143 7.1419C5.44143 7.70645 4.98571 8.16217 4.42116 8.16217ZM6.4617 5.44145C5.89715 5.44145 5.44143 4.98573 5.44143 4.42118C5.44143 3.85663 5.89715 3.4009 6.4617 3.4009C7.02625 3.4009 7.48197 3.85663 7.48197 4.42118C7.48197 4.98573 7.02625 5.44145 6.4617 5.44145ZM9.86261 5.44145C9.29806 5.44145 8.84234 4.98573 8.84234 4.42118C8.84234 3.85663 9.29806 3.4009 9.86261 3.4009C10.4272 3.4009 10.8829 3.85663 10.8829 4.42118C10.8829 4.98573 10.4272 5.44145 9.86261 5.44145ZM11.9031 8.16217C11.3386 8.16217 10.8829 7.70645 10.8829 7.1419C10.8829 6.57735 11.3386 6.12163 11.9031 6.12163C12.4677 6.12163 12.9234 6.57735 12.9234 7.1419C12.9234 7.70645 12.4677 8.16217 11.9031 8.16217Z" fill="black"/>
</svg>
