<svg width="38" height="38" viewBox="0 0 38 38" fill="none" xmlns="http://www.w3.org/2000/svg">
<path fill-rule="evenodd" clip-rule="evenodd" d="M24.0689 0.383675C24.5805 0.895242 24.5805 1.72468 24.0689 2.23624C19.6012 6.7039 17.9151 12.9134 19.5429 18.0094C24.6388 19.6372 30.8484 17.951 35.3161 13.4833C35.8277 12.9717 36.657 12.9717 37.1685 13.4833C37.6801 13.9949 37.6801 14.8243 37.1685 15.3358C32.5879 19.9167 26.2281 22.0666 20.4766 20.9479C21.7864 26.4927 19.7785 32.7258 15.3358 37.1685C14.8243 37.6801 13.9949 37.6801 13.4833 37.1685C12.9717 36.657 12.9717 35.8277 13.4833 35.3161C17.7046 31.0947 19.2465 25.2063 17.6064 20.4424L17.4793 20.073L17.1099 19.9458C12.346 18.3058 6.45752 19.8477 2.23624 24.0689C1.72468 24.5805 0.895242 24.5805 0.383675 24.0689C-0.127892 23.5573 -0.127892 22.728 0.383675 22.2164C4.82635 17.7737 11.0595 15.7658 16.6044 17.0756C15.4857 11.3242 17.6356 4.96448 22.2164 0.383675C22.728 -0.127892 23.5573 -0.127892 24.0689 0.383675Z" fill="black" fill-opacity="0.3"/>
<path opacity="0.5" d="M32.8965 15.5208L27.1748 9.79903C26.6632 9.28747 25.8337 9.28747 25.3222 9.79903C24.8106 10.3106 24.8106 11.14 25.3222 11.6516L30.5758 16.9052C31.3712 16.5099 32.1481 16.0477 32.8965 15.5208Z" fill="black" fill-opacity="0.3"/>
<path opacity="0.5" d="M20.7119 6.84557L22.3674 8.50098C22.8789 9.01254 23.7082 9.01254 24.2198 8.50098C24.7314 7.98941 24.7314 7.15998 24.2198 6.64841L22.1122 4.5407C21.5805 5.28351 21.1131 6.05499 20.7119 6.84557Z" fill="black" fill-opacity="0.3"/>
<path opacity="0.5" d="M16.8501 30.5194L14.9946 28.6638C14.483 28.1523 13.6536 28.1523 13.142 28.6638C12.6304 29.1754 12.6304 30.0047 13.142 30.5163L15.5061 32.8805C16.0264 32.1197 16.4751 31.3288 16.8501 30.5194Z" fill="black" fill-opacity="0.3"/>
<path opacity="0.5" d="M4.55396 22.1268L9.98983 27.5626C10.5014 28.0742 11.3308 28.0742 11.8424 27.5626C12.354 27.051 12.354 26.2217 11.8424 25.7102L6.89737 20.7651C6.09348 21.1468 5.30853 21.6012 4.55396 22.1268Z" fill="black" fill-opacity="0.3"/>
<path opacity="0.5" d="M9.17114 19.8943L17.5759 28.2992C17.603 28.3263 17.6309 28.352 17.6597 28.3761C17.9663 27.3363 18.1549 26.2833 18.2218 25.24L12.3126 19.3307C11.2674 19.3977 10.2127 19.5869 9.17114 19.8943Z" fill="black" fill-opacity="0.3"/>
<path opacity="0.5" d="M28.4688 17.7827C28.4207 17.7097 28.3645 17.6403 28.3002 17.5761L19.7799 9.05565C19.4428 10.0445 19.2049 11.0483 19.0693 12.0503L25.5027 18.4836C26.4949 18.3493 27.4893 18.1147 28.4688 17.7827Z" fill="black" fill-opacity="0.3"/>
</svg>
