<svg width="23" height="23" viewBox="0 0 23 23" fill="none" xmlns="http://www.w3.org/2000/svg">
<path d="M21.2987 1.71498C20.7597 1.17158 20.1183 0.740259 19.4116 0.445905C18.7049 0.151551 17.9469 0 17.1813 0C16.4157 0 15.6576 0.151551 14.9509 0.445905C14.2442 0.740259 13.6029 1.17158 13.0639 1.71498L1.70549 13.0661C0.613482 14.1574 0 15.6375 0 17.1808C0 18.7242 0.613482 20.2043 1.70549 21.2956C2.79749 22.3869 4.27857 23 5.8229 23C7.36723 23 8.8483 22.3869 9.94031 21.2956L21.2987 9.94452C22.3882 8.85191 23 7.37227 23 5.82975C23 4.28723 22.3882 2.8076 21.2987 1.71498ZM9.27774 20.6335C8.35667 21.5258 7.1214 22.0204 5.83859 22.0105C4.55578 22.0005 3.32833 21.4869 2.42121 20.5803C1.5141 19.6738 1.00009 18.4471 0.990148 17.1652C0.980203 15.8832 1.47512 14.6487 2.36806 13.7282L7.71596 8.39557L14.6138 15.289L9.27774 20.6335ZM20.6361 9.28237L15.2882 14.615L8.39036 7.7216L13.7264 2.37713C14.6475 1.48476 15.8828 0.990165 17.1656 1.0001C18.4484 1.01004 19.6758 1.52372 20.583 2.43025C21.4901 3.33678 22.0041 4.56344 22.014 5.84543C22.024 7.12742 21.5291 8.3619 20.6361 9.28237ZM18.5301 6.50372C18.616 6.59565 18.6628 6.71734 18.6606 6.8431C18.6583 6.96886 18.6073 7.08884 18.5182 7.17769L15.6195 9.95635C15.5793 10.0012 15.5301 10.0371 15.475 10.0616C15.4199 10.086 15.3603 10.0985 15.3 10.0982C15.235 10.0997 15.1705 10.0867 15.1111 10.0601C15.0518 10.0335 14.9991 9.99401 14.9569 9.94452C14.8718 9.85457 14.8253 9.73484 14.8275 9.61103C14.8297 9.48723 14.8804 9.36923 14.9688 9.28237L17.8557 6.4919C17.9477 6.40605 18.0694 6.3593 18.1953 6.3615C18.3211 6.36371 18.4412 6.41471 18.5301 6.50372Z" fill="#F2AE49"/>
</svg>
