<svg width="24" height="24" viewBox="0 0 24 24" fill="none" xmlns="http://www.w3.org/2000/svg">
<path d="M0.9 11.4884C0.9 17.3251 5.65177 22.0768 11.4884 22.0768C17.3251 22.0768 22.0768 17.3251 22.0768 11.4884C22.0768 5.65177 17.3251 0.9 11.4884 0.9C5.65177 0.9 0.9 5.65177 0.9 11.4884ZM2.63489 11.4884C2.63489 6.61146 6.60138 2.63489 11.4884 2.63489C16.3755 2.63489 20.342 6.61146 20.342 11.4884C20.342 16.3654 16.3755 20.342 11.4884 20.342C6.60138 20.342 2.63489 16.3654 2.63489 11.4884Z" fill="#292D32" stroke="black" stroke-width="0.2"/>
<path d="M21.62 22.8456C21.7932 23.0188 22.0135 23.1 22.233 23.1C22.4526 23.1 22.6728 23.0188 22.8461 22.8456C23.1819 22.5098 23.1819 21.9553 22.8461 21.6195L20.7996 19.573C20.4638 19.2372 19.9093 19.2372 19.5735 19.573C19.2377 19.9088 19.2377 20.4633 19.5735 20.7991L21.62 22.8456Z" fill="#292D32" stroke="black" stroke-width="0.2"/>
</svg>
