<svg width="36" height="36" viewBox="0 0 36 36" fill="none" xmlns="http://www.w3.org/2000/svg">
<path d="M18 36C27.9411 36 36 27.9411 36 18C36 8.05887 27.9411 0 18 0C8.05887 0 0 8.05887 0 18C0 27.9411 8.05887 36 18 36Z" fill="#E4405F"/>
<path d="M18.0001 9C15.5568 9 15.2509 9.01055 14.2912 9.05273C13.3314 9.09844 12.681 9.24961 12.108 9.47109C11.5173 9.69961 11.0146 10.009 10.5119 10.5082C10.0091 11.0074 9.70327 11.5102 9.47476 12.1043C9.25327 12.6773 9.1021 13.3312 9.0564 14.2875C9.01069 15.2473 9.00366 15.5531 9.00366 17.9965C9.00366 20.4398 9.01421 20.7457 9.0564 21.7055C9.1021 22.6617 9.25327 23.3156 9.47476 23.8887C9.70327 24.4793 10.0126 24.982 10.5119 25.4848C11.0111 25.984 11.5138 26.2934 12.108 26.5219C12.681 26.7434 13.3349 26.8945 14.2912 26.9402C15.2509 26.9859 15.5568 26.993 18.0001 26.993C20.4435 26.993 20.7494 26.9824 21.7091 26.9402C22.6654 26.8945 23.3193 26.7434 23.8923 26.5219C24.483 26.2934 24.9857 25.984 25.4884 25.4848C25.9876 24.9855 26.297 24.4828 26.5255 23.8887C26.747 23.3156 26.8982 22.6617 26.9439 21.7055C26.9896 20.7457 26.9966 20.4398 26.9966 17.9965C26.9966 15.5531 26.9861 15.2473 26.9439 14.2875C26.8982 13.3312 26.747 12.6773 26.5255 12.1043C26.297 11.5137 25.9876 11.0109 25.4884 10.5082C24.9892 10.009 24.4865 9.69961 23.8923 9.47109C23.3193 9.24961 22.6654 9.09844 21.7091 9.05273C20.7494 9.01055 20.4435 9 18.0001 9ZM18.0001 10.6207C20.4013 10.6207 20.6896 10.6313 21.6388 10.6734C22.5177 10.7156 22.9923 10.8598 23.3087 10.9863C23.7306 11.148 24.0294 11.3449 24.3458 11.6578C24.6587 11.9742 24.8556 12.273 25.0173 12.6949C25.1404 13.0113 25.288 13.4859 25.3267 14.3648C25.3689 15.3141 25.3794 15.5988 25.3794 18.0035C25.3794 20.4082 25.3689 20.693 25.3232 21.6422C25.2775 22.5211 25.1298 22.9957 25.0068 23.3121C24.838 23.734 24.6482 24.0328 24.3318 24.3492C24.0189 24.6621 23.713 24.859 23.2982 25.0207C22.9818 25.1438 22.5001 25.2914 21.6212 25.3301C20.665 25.3723 20.3837 25.3828 17.9755 25.3828C15.5673 25.3828 15.2861 25.3723 14.3298 25.3266C13.4509 25.2809 12.9693 25.1332 12.6529 25.0102C12.2275 24.8414 11.9322 24.6516 11.6193 24.3352C11.3029 24.0223 11.1025 23.7164 10.9443 23.3016C10.8212 22.9852 10.6736 22.5035 10.6279 21.6246C10.5927 20.6789 10.5822 20.3871 10.5822 17.993C10.5822 15.5953 10.5927 15.3035 10.6279 14.3473C10.6736 13.4684 10.8177 12.9867 10.9443 12.6703C11.1025 12.2414 11.3029 11.9496 11.6193 11.6332C11.9322 11.3203 12.2275 11.1164 12.6529 10.9582C12.9693 10.8352 13.4404 10.6875 14.3193 10.6418C15.2755 10.6066 15.5568 10.5961 17.965 10.5961L18.0001 10.6207ZM18.0001 13.377C15.4478 13.377 13.3771 15.4477 13.3771 18C13.3771 20.5523 15.4478 22.623 18.0001 22.623C20.5525 22.623 22.6232 20.5523 22.6232 18C22.6232 15.4477 20.5525 13.377 18.0001 13.377ZM18.0001 20.9988C16.3443 20.9988 15.0013 19.6559 15.0013 18C15.0013 16.3441 16.3443 15.0012 18.0001 15.0012C19.656 15.0012 20.999 16.3441 20.999 18C20.999 19.6559 19.656 20.9988 18.0001 20.9988ZM23.8853 13.1977C23.8853 13.7953 23.4001 14.277 22.806 14.277C22.2084 14.277 21.7267 13.7918 21.7267 13.1977C21.7267 12.6035 22.2119 12.1184 22.806 12.1184C23.4001 12.1148 23.8853 12.6 23.8853 13.1977Z" fill="white"/>
</svg>
